<svg width="28" height="28" viewBox="0 0 28 28" fill="none" xmlns="http://www.w3.org/2000/svg">
<path d="M17.8521 24.4257C17.8521 24.828 17.7344 25.0986 17.4968 25.2327C17.2591 25.3692 16.965 25.3339 16.6144 25.1316L1.75327 16.5527C1.40269 16.3504 1.10857 16.0445 0.870921 15.6351C0.635627 15.2257 0.515625 14.8186 0.515625 14.4163C0.515625 14.0139 0.635627 13.7457 0.870921 13.6092L0.943863 13.5739C1.16739 13.4845 1.43798 13.5292 1.75327 13.7104L16.6144 22.2892C16.965 22.4916 17.2591 22.7974 17.4968 23.2069C17.7344 23.6163 17.8521 24.0233 17.8521 24.4257Z" fill="#FF5F15" stroke="white" strokeWidth="0.201681" strokeLinecap="round" strokeLinejoin="round"/>
<path d="M22.8052 15.9172C22.8052 16.3195 22.6876 16.5901 22.4499 16.7242C22.2123 16.8607 21.9182 16.8254 21.5676 16.6231L7.9064 8.736L6.70642 8.04423C6.60054 7.98306 6.49936 7.91247 6.40289 7.82776C6.18171 7.64659 5.99113 7.41129 5.82642 7.12659C5.58877 6.71717 5.46875 6.31247 5.46875 5.90776C5.46875 5.50306 5.58877 5.23717 5.82642 5.10306L5.89936 5.06776C6.12054 4.976 6.39113 5.0207 6.70642 5.20188L21.5676 13.7831C21.9182 13.9854 22.2123 14.2913 22.4499 14.7007C22.5064 14.7972 22.5558 14.8936 22.5982 14.9901C22.737 15.3007 22.8052 15.6089 22.8052 15.9172Z" fill="#FF5F15" stroke="white" strokeWidth="0.201681" strokeLinecap="round" strokeLinejoin="round"/>
<path d="M20.3287 20.1718C20.3287 20.5741 20.2087 20.8447 19.971 20.9788C19.7334 21.1153 19.4392 21.08 19.0887 20.8777L5.42748 12.9906L4.22983 12.2988C4.1216 12.2377 4.02042 12.1647 3.92395 12.0824C3.70513 11.8988 3.51219 11.6659 3.34748 11.3812C3.10983 10.9718 2.99219 10.5647 2.99219 10.1624C2.99219 9.76001 3.10983 9.49177 3.34748 9.3553L3.42042 9.32001C3.64395 9.2306 3.91454 9.2753 4.22983 9.45648L19.0887 18.0353C19.4392 18.24 19.7334 18.5459 19.971 18.9553C20.0275 19.0518 20.0769 19.1482 20.1169 19.2424C20.2581 19.5553 20.3287 19.8635 20.3287 20.1718Z" fill="#FF5F15" stroke="white" strokeWidth="0.201681" strokeLinecap="round" strokeLinejoin="round"/>
<path d="M25.0361 17.8187C25.0361 18.2211 24.9161 18.4917 24.6784 18.6258L24.6055 18.6611L21.6266 20.1528L19.9725 20.9787C20.2101 20.8446 20.3301 20.574 20.3301 20.1717C20.3301 19.8634 20.2595 19.5552 20.1183 19.2422C20.0783 19.1481 20.0289 19.0517 19.9725 18.9552C19.7348 18.5458 19.4407 18.2399 19.0901 18.0352L4.23129 9.45636C3.91599 9.27518 3.6454 9.23048 3.42188 9.31989L6.40305 7.82812C6.49952 7.91283 6.6007 7.98342 6.70658 8.0446L7.90656 8.73636L21.5677 16.6234C21.9183 16.8258 22.2124 16.8611 22.4501 16.7246L24.102 15.8987C24.3208 16.0846 24.5137 16.3175 24.6784 16.6022C24.9161 17.0117 25.0361 17.4164 25.0361 17.8187Z" fill="#FF5F15" stroke="white" strokeWidth="0.201681" strokeLinecap="round" strokeLinejoin="round"/>
<path d="M27.5103 13.5645C27.5103 13.9669 27.3926 14.2375 27.155 14.3716L27.082 14.4069L24.1008 15.8987L22.449 16.7245C22.6867 16.5904 22.8043 16.3198 22.8043 15.9175C22.8043 15.6093 22.7361 15.301 22.5973 14.9904C22.5549 14.894 22.5055 14.7975 22.449 14.701C22.2114 14.2916 21.9173 13.9857 21.5667 13.7834L6.7055 5.20219C6.3902 5.02102 6.11961 4.97631 5.89844 5.06807L10.5314 2.75042C10.7667 2.61395 11.0608 2.64689 11.4114 2.84924L26.2726 11.4304C26.6232 11.6328 26.9173 11.9387 27.155 12.3481C27.3926 12.7575 27.5103 13.1622 27.5103 13.5645Z" fill="#FF5F15" stroke="white" strokeWidth="0.201681" strokeLinecap="round" strokeLinejoin="round"/>
<path d="M22.5575 22.0726C22.5575 22.475 22.4398 22.7456 22.2022 22.8797L22.1292 22.915L17.4963 25.2326C17.7339 25.0985 17.8516 24.8279 17.8516 24.4256C17.8516 24.0232 17.7339 23.6161 17.4963 23.2067C17.2586 22.7973 16.9645 22.4914 16.6139 22.2891L1.75277 13.7103C1.43748 13.5291 1.16689 13.4844 0.943359 13.5738L3.92452 12.082C4.02099 12.1644 4.12217 12.2373 4.2304 12.2985L5.42807 12.9903L19.0892 20.8773C19.4398 21.0797 19.734 21.115 19.9716 20.9785L21.6257 20.1526C21.8445 20.3361 22.0375 20.5691 22.2022 20.8538C22.4398 21.2632 22.5575 21.6703 22.5575 22.0726Z" fill="#FF5F15" stroke="white" strokeWidth="0.201681" strokeLinecap="round" strokeLinejoin="round"/>
</svg>
