<svg width="28" height="28" viewBox="0 0 28 28" fill="none" xmlns="http://www.w3.org/2000/svg">
<path d="M20.8216 19.8635C20.7457 18.6309 20.505 17.3644 20.1046 16.0638C19.6074 14.4597 18.9349 12.9263 18.087 11.4582C17.6448 10.6967 17.1633 9.96925 16.6399 9.27056C16.1584 8.6242 15.6403 8.00401 15.0882 7.41261C13.9394 6.18271 12.7121 5.18831 11.4063 4.43467C11.108 4.26458 10.8149 4.10757 10.5271 3.97149C9.66352 3.56065 8.83663 3.3042 8.04635 3.19691C7.93644 3.18383 7.83177 3.17074 7.72448 3.16289C6.89756 3.09486 6.14651 3.17598 5.4766 3.40887H5.47137C5.2123 3.50046 4.96368 3.61299 4.72816 3.74644C3.87769 4.23056 3.20518 4.98944 2.7106 6.02046C2.2134 7.05411 1.96484 8.31803 1.96484 9.81747C1.96484 11.3169 2.2134 12.8661 2.7106 14.4702C3.20518 16.0743 3.87769 17.6104 4.72816 19.0758C5.57601 20.5412 6.57569 21.8889 7.72448 23.1214C8.87326 24.3539 10.1005 25.3457 11.4063 26.0993C12.7121 26.8555 13.9394 27.2794 15.0882 27.3737C16.237 27.4679 17.2366 27.2716 18.087 26.7875C18.8773 26.3374 19.5132 25.6466 20 24.7229C20.0366 24.6549 20.0706 24.5842 20.1046 24.5135C20.4108 23.875 20.6228 23.1449 20.7406 22.3233C20.8112 21.8235 20.8478 21.287 20.8478 20.7192C20.8478 20.4365 20.8399 20.1513 20.8216 19.8635ZM14.3084 24.961C13.382 24.8563 12.4138 24.5162 11.4063 23.9352C9.29714 22.7158 7.51246 20.8448 6.04966 18.3221C4.58686 15.7969 3.85418 13.3266 3.85418 10.9061C3.85418 8.48551 4.58686 6.86046 6.04966 6.0257C6.4448 5.80065 6.86352 5.65149 7.30838 5.5756C7.97043 5.46308 8.6848 5.51803 9.45153 5.74046C10.0691 5.91841 10.7207 6.20626 11.4063 6.6014V15.2683L13.3061 18.5446L15.9047 23.0272L16.763 24.5083C16.0564 24.9113 15.2373 25.0631 14.3084 24.961Z" fill="#FF5F15" stroke="white" strokeWidth="0.224299" strokeLinecap="round" strokeLinejoin="round"/>
<path d="M16.7623 24.5089C16.0558 24.9119 15.2367 25.0637 14.3077 24.9617C13.3813 24.857 12.4131 24.5168 11.4056 23.9359C9.29648 22.7164 7.51181 20.8454 6.04901 18.3228C4.5862 15.7975 3.85352 13.3273 3.85352 10.9067C3.85352 8.48614 4.5862 6.86109 6.04901 6.02633C6.44415 5.80128 6.86284 5.65212 7.3077 5.57623C7.96975 5.46371 8.68415 5.51866 9.45088 5.74109C9.20751 6.46072 9.08716 7.31119 9.08716 8.28988C9.08716 10.7104 9.81985 13.1807 11.2827 15.706C11.8976 16.7684 12.5701 17.7157 13.3055 18.5452L15.904 23.0278L16.7623 24.5089Z" fill="#FF5F15" stroke="white" strokeWidth="0.224299" strokeLinecap="round" strokeLinejoin="round"/>
<path d="M26.0814 18.1028C26.0814 19.5996 25.8328 20.8662 25.3382 21.8972C24.841 22.9282 24.1685 23.6871 23.3206 24.1712L18.087 26.788C18.8773 26.3379 19.5132 25.6471 19.9999 24.7234C20.0366 24.6553 20.0706 24.5847 20.1046 24.514C20.4107 23.8755 20.6228 23.1454 20.7405 22.3237C20.8112 21.8239 20.8478 21.2875 20.8478 20.7196C20.8478 20.437 20.8399 20.1518 20.8216 19.8639C20.7457 18.6314 20.5049 17.3649 20.1046 16.0643C19.6074 14.4602 18.9349 12.9267 18.087 11.4587C17.6448 10.6972 17.1633 9.96972 16.6399 9.27103C16.1584 8.62467 15.6403 8.00449 15.0882 7.41309C13.9394 6.18318 12.7121 5.18879 11.4063 4.43514C11.1079 4.26505 10.8149 4.10804 10.527 3.97196C9.66348 3.56112 8.83659 3.30467 8.04631 3.19739C7.9364 3.1843 7.83173 3.17122 7.72444 3.16337C6.89752 3.09533 6.14647 3.17645 5.47656 3.40935L9.96177 1.1301C10.8096 0.645988 11.8093 0.452344 12.9581 0.546549C14.1069 0.640755 15.3341 1.06468 16.6399 1.81832C17.9457 2.57197 19.173 3.56636 20.3218 4.79626C21.4706 6.02879 22.4702 7.37645 23.3206 8.84187C24.1685 10.3099 24.841 11.8434 25.3382 13.4475C25.8328 15.0516 26.0814 16.6034 26.0814 18.1028Z" fill="#FF5F15" stroke="white" strokeWidth="0.224299" strokeLinecap="round" strokeLinejoin="round"/>
</svg>
