<svg width="28" height="28" viewBox="0 0 28 28" fill="none" xmlns="http://www.w3.org/2000/svg">
<path d="M20.1788 15.1082C20.1031 14.904 20.0044 14.6974 19.8828 14.4885C19.846 14.4266 19.8116 14.3669 19.7726 14.3095C19.4559 13.8115 19.0841 13.4397 18.6572 13.1941L18.0375 12.8361L11.7077 9.18461L10.4706 7.05018C10.3123 6.77477 10.1264 6.5269 9.91752 6.30658C9.70867 6.08625 9.48605 5.90723 9.25425 5.77412L7.61556 4.82854L4.76047 3.18068C4.33129 2.93281 3.95949 2.87543 3.64277 3.00395L3.5349 3.05674C3.19523 3.25182 3.02539 3.62133 3.02539 4.16986V16.1272C3.02539 16.6758 3.19523 17.2426 3.5349 17.8302C3.87457 18.4177 4.2831 18.8492 4.76047 19.1246L18.6572 27.1459C19.1346 27.4213 19.5431 27.4626 19.8828 27.2698C20.2224 27.0747 20.3923 26.7029 20.3923 26.1567V16.1915C20.3923 15.8381 20.3211 15.4777 20.1788 15.1082ZM16.6697 19.7328C16.5021 19.8292 16.2979 19.804 16.05 19.664L15.1824 19.1613V20.1574C15.1824 20.1574 15.1824 20.1826 15.1801 20.1941C15.1756 20.4558 15.0929 20.6325 14.9323 20.7243C14.767 20.8184 14.5605 20.7954 14.3149 20.6531C14.067 20.5108 13.8628 20.2974 13.6952 20.0105C13.5346 19.7351 13.4519 19.462 13.4474 19.1935C13.4451 19.1797 13.4451 19.1682 13.4451 19.1544V18.1584L12.5775 17.6581C12.332 17.5158 12.1254 17.3 11.9579 17.0131C11.7926 16.7262 11.7077 16.4417 11.7077 16.1594C11.7077 15.8771 11.7926 15.6889 11.9579 15.5925C12.1254 15.4984 12.332 15.5213 12.5775 15.6636L13.4451 16.1662V15.1702C13.4451 14.8879 13.5277 14.6974 13.6952 14.6033C13.8628 14.5092 14.067 14.5322 14.3149 14.6744C14.5605 14.8167 14.767 15.0302 14.9323 15.3171C14.9483 15.3446 14.9644 15.3722 14.9782 15.3997C15.1159 15.659 15.1824 15.9161 15.1824 16.1708V17.1692L15.2949 17.2335L16.05 17.6695C16.2979 17.8118 16.5021 18.0276 16.6697 18.3144C16.6857 18.342 16.6995 18.3672 16.7156 18.3948C16.851 18.6541 16.9198 18.9112 16.9198 19.1682C16.9198 19.4505 16.8372 19.6387 16.6697 19.7328Z" fill="#FF5F15" stroke="white" strokeWidth="0.196721" stroke-linecap="round" strokeLinejoin="round"/>
<path d="M16.919 19.169C16.919 19.4512 16.8364 19.6394 16.6689 19.7335C16.5013 19.8299 16.2971 19.8047 16.0492 19.6647L15.1816 19.1621L16.7148 18.3955C16.8502 18.6549 16.919 18.9119 16.919 19.169Z" fill="#FF5F15" stroke="white" strokeWidth="0.196721" stroke-linecap="round" strokeLinejoin="round"/>
<path d="M14.9784 15.3999L13.4453 16.1664V15.1703C13.4453 14.8881 13.5279 14.6976 13.6955 14.6035C13.863 14.5094 14.0673 14.5323 14.3151 14.6746C14.5607 14.8169 14.7673 15.0303 14.9325 15.3172C14.9486 15.3448 14.9647 15.3723 14.9784 15.3999Z" fill="#FF5F15" stroke="white" strokeWidth="0.196721" stroke-linecap="round" strokeLinejoin="round"/>
<path d="M15.2942 17.2342L13.4444 18.1591L12.5768 17.6588C12.3313 17.5165 12.1247 17.3007 11.9572 17.0138C11.7919 16.7269 11.707 16.4424 11.707 16.1601C11.707 15.8778 11.7919 15.6896 11.9572 15.5932C12.1247 15.4991 12.3313 15.522 12.5768 15.6643L13.4444 16.1669L14.9775 15.4004C15.1152 15.6597 15.1818 15.9168 15.1818 16.1715V17.1699L15.2942 17.2342Z" fill="#FF5F15" stroke="white" strokeWidth="0.196721" stroke-linecap="round" strokeLinejoin="round"/>
<path d="M16.7158 18.3947L15.1827 19.1613V20.1573C15.1827 20.1573 15.1827 20.1826 15.1804 20.1941C15.1758 20.4557 15.0932 20.6324 14.9325 20.7242C14.7673 20.8183 14.5607 20.7954 14.3151 20.6531C14.0673 20.5108 13.863 20.2973 13.6955 20.0104C13.5348 19.735 13.4522 19.4619 13.4476 19.1934C13.4453 19.1796 13.4453 19.1682 13.4453 19.1544V18.1583L15.2951 17.2334L16.0502 17.6695C16.2981 17.8118 16.5024 18.0275 16.6699 18.3144C16.686 18.3419 16.6997 18.3672 16.7158 18.3947Z" fill="#FF5F15" stroke="white" strokeWidth="0.196721" stroke-linecap="round" strokeLinejoin="round"/>
<path d="M24.9818 13.8968V23.862C24.9818 24.4082 24.8119 24.78 24.4723 24.9751L24.3644 25.0279L19.8821 27.2702C20.2218 27.0751 20.3916 26.7033 20.3916 26.1571V16.1919C20.3916 15.8384 20.3205 15.4781 20.1782 15.1086C20.1024 14.9043 20.0038 14.6978 19.8821 14.4889C19.8454 14.4269 19.811 14.3673 19.772 14.3099C19.4552 13.8119 19.0834 13.4401 18.6565 13.1945L18.0369 12.8364L11.707 9.18497L16.2972 6.88989L23.2467 10.8994C23.7241 11.1748 24.1326 11.6063 24.4723 12.1938C24.8119 12.7814 24.9818 13.3483 24.9818 13.8968Z" fill="#FF5F15" stroke="white" strokeWidth="0.196721" stroke-linecap="round" strokeLinejoin="round"/>
<path d="M16.2977 6.89022L11.7075 9.1853L10.4704 7.05087C10.3121 6.77546 10.1262 6.5276 9.91735 6.30727C9.7085 6.08694 9.48585 5.90792 9.25405 5.77481L7.61536 4.82924L4.76028 3.18137C4.3311 2.9335 3.9593 2.87612 3.64258 3.00465L8.12489 0.762341C8.46456 0.569554 8.87306 0.60857 9.35044 0.886275L13.8442 3.47973C14.076 3.61284 14.2987 3.79186 14.5075 4.01219C14.7164 4.23251 14.9022 4.48038 15.0606 4.75579L16.2977 6.89022Z" fill="#FF5F15" stroke="white" strokeWidth="0.196721" strokeLinecap="round" strokeLinejoin="round"/>
</svg>
