<svg width="28" height="28" viewBox="0 0 28 28" fill="none" xmlns="http://www.w3.org/2000/svg">
<path d="M18.7866 20.9936C18.7866 21.0769 18.7802 21.1496 18.7652 21.2159C18.7332 21.3783 18.6605 21.4894 18.5472 21.5557C18.3869 21.6476 18.1839 21.6198 17.9359 21.4788C17.688 21.3356 17.4849 21.1261 17.3246 20.8504L17.019 20.3224L15.6681 17.9905L14.4904 15.96V26.9227C14.4904 27.2049 14.4049 27.3951 14.2382 27.4913C14.0715 27.5853 13.8642 27.5618 13.6162 27.4186C13.3704 27.2775 13.1631 27.0617 12.9964 26.7731C12.8275 26.4846 12.7442 26.1981 12.7442 25.9139V20.9081L11 19.9014V24.9072C11 25.1914 10.9167 25.3795 10.7478 25.4757C10.5811 25.5719 10.3738 25.5462 10.128 25.4052C9.88006 25.262 9.67273 25.0461 9.50601 24.7575C9.3393 24.469 9.25378 24.1826 9.25378 23.9004V11.6617C8.04828 10.5972 7.06296 9.29341 6.2999 7.75234C5.53471 6.20914 5.08158 4.69585 4.93623 3.21036C4.90631 2.96028 4.97899 2.80639 5.15425 2.74868C5.32952 2.69097 5.53257 2.72946 5.76555 2.86198C5.99639 2.99664 6.20157 3.18471 6.3747 3.42837C6.54996 3.6699 6.65258 3.92641 6.68037 4.19359C6.84067 5.48672 7.29164 6.74776 8.03332 7.97677C8.775 9.20578 9.68981 10.1356 10.782 10.7661L12.9622 12.025C13.1567 12.1383 13.3448 12.2644 13.5286 12.4076C13.7573 12.5829 13.9753 12.7817 14.1848 13.0039C14.5631 13.4058 14.903 13.8717 15.2086 14.3975L18.5472 20.1536C18.6584 20.3481 18.7332 20.5468 18.7652 20.7456C18.7802 20.8268 18.7866 20.9102 18.7866 20.9936Z" fill="#FF5F15" stroke="white" strokeWidth="0.183206" strokeLinecap="round" strokeLinejoin="round"/>
<path d="M18.7633 21.4467V24.7853C18.7633 25.0675 18.6779 25.2577 18.5111 25.3539L18.4598 25.3795L14.2363 27.4913C14.403 27.3951 14.4885 27.2049 14.4885 26.9227V15.96L15.6662 17.9905L17.0171 20.3224L17.3227 20.8503C17.483 21.1261 17.6861 21.3356 17.934 21.4788C18.182 21.6198 18.385 21.6476 18.5453 21.5557L18.7633 21.4467Z" fill="#FF5F15" stroke="white" strokeWidth="0.183206" strokeLinecap="round" strokeLinejoin="round"/>
<path d="M23.0595 18.8559C23.0595 19.1401 22.9783 19.3261 22.8201 19.418L18.5453 21.5554C18.6586 21.4891 18.7313 21.378 18.7633 21.2156C18.7783 21.1493 18.7847 21.0766 18.7847 20.9933C18.7847 20.9099 18.7783 20.8265 18.7633 20.7453C18.7313 20.5465 18.6565 20.3478 18.5453 20.1533L15.2067 14.3972C14.9011 13.8714 14.5612 13.4055 14.1829 13.0036C13.9734 12.7814 13.7554 12.5826 13.5267 12.4073C13.3429 12.2641 13.1548 12.138 12.9603 12.0247L10.7801 10.7658C9.6879 10.1353 8.77309 9.20548 8.03141 7.97647C7.28974 6.74746 6.83876 5.48642 6.67846 4.19329C6.65067 3.92611 6.54806 3.6696 6.37279 3.42808C6.19966 3.18441 5.99448 2.99634 5.76364 2.86168C5.53066 2.72917 5.32761 2.69067 5.15234 2.74838L9.32884 0.660143L9.42716 0.610987C9.60243 0.553277 9.80546 0.591757 10.0384 0.724276C10.2693 0.858932 10.4745 1.047 10.6476 1.29067C10.8229 1.53219 10.9255 1.7887 10.9533 2.05587C11.1007 3.23787 11.4897 4.39204 12.1224 5.52059L10.8549 6.1554L10.6369 6.26441C10.2971 6.46105 10.1261 6.83296 10.1261 7.38441C10.1261 7.93586 10.2971 8.50441 10.6369 9.09433C10.9789 9.68212 11.3893 10.116 11.8702 10.3939C12.349 10.6696 12.7615 10.7123 13.1035 10.5157L13.5267 10.3041L15.9014 9.11785L17.2351 9.88733C17.6711 10.1395 18.0794 10.4644 18.4577 10.8662C18.836 11.2681 19.1759 11.734 19.4815 12.2598L22.8201 18.0159C22.9783 18.2916 23.0595 18.5716 23.0595 18.8559Z" fill="#FF5F15" stroke="white" strokeWidth="0.183206" strokeLinecap="round" strokeLinejoin="round"/>
<path d="M13.6152 9.39806C13.6152 9.62249 13.5874 9.81913 13.5275 9.98371C13.4485 10.2231 13.3053 10.4005 13.1043 10.5159C12.7624 10.7126 12.3498 10.6698 11.8711 10.3941C11.3901 10.1162 10.9798 9.68233 10.6378 9.09455C10.2979 8.50462 10.127 7.93394 10.127 7.38462C10.127 6.83531 10.2979 6.46127 10.6378 6.26462L10.6934 6.23684C10.7489 6.20905 10.8066 6.18768 10.8665 6.17272C11.1572 6.09791 11.4927 6.17274 11.8711 6.38862C12.3498 6.66648 12.7624 7.09821 13.1043 7.68814C13.4442 8.27806 13.6152 8.84875 13.6152 9.39806Z" fill="#FF5F15" stroke="white" strokeWidth="0.183206" strokeLinecap="round" strokeLinejoin="round"/>
<path d="M17.8897 7.26113C17.8897 7.81258 17.7187 8.18449 17.3788 8.37899L17.2698 8.43243L15.9019 9.11853L13.5272 10.3048L13.104 10.5164C13.305 10.401 13.4481 10.2236 13.5272 9.98418C13.5871 9.8196 13.6149 9.62296 13.6149 9.39853C13.6149 8.84922 13.4439 8.27853 13.104 7.68861C12.7621 7.09869 12.3495 6.66695 11.8707 6.38909C11.4924 6.17321 11.1569 6.0984 10.8662 6.17321C10.8619 6.1668 10.8576 6.1625 10.8555 6.15609L12.123 5.52128L14.9123 4.12769C15.2543 3.93319 15.6646 3.97596 16.1455 4.25168C16.6243 4.52955 17.0369 4.96128 17.3788 5.55121C17.7187 6.14113 17.8897 6.71182 17.8897 7.26113Z" fill="#FF5F15" stroke="white" strokeWidth="0.183206" strokeLinecap="round" strokeLinejoin="round"/>
<path d="M12.7424 20.9081V24.4775L10.7461 25.4757C10.9149 25.3795 10.9983 25.1914 10.9983 24.9072V19.9014L12.7424 20.9081Z" fill="#FF5F15" stroke="white" strokeWidth="0.183206" strokeLinecap="round" strokeLinejoin="round"/>
</svg>
