<svg width="38" height="36" viewBox="0 0 38 36" fill="none" xmlns="http://www.w3.org/2000/svg">
<path d="M26.1601 22.7218L25.2122 23.6655C25.2122 23.6655 22.956 25.9072 16.7997 19.7864C10.6435 13.6655 12.8997 11.4239 12.8997 11.4239L13.4955 10.828C14.9685 9.36552 15.108 7.01552 13.8226 5.29885L11.1976 1.7926C9.60595 -0.3324 6.53303 -0.613649 4.71012 1.19885L1.43928 4.44885C0.537201 5.34885 -0.0669667 6.51135 0.00595 7.80302C0.19345 11.1093 1.68928 18.2197 10.031 26.5155C18.8789 35.3114 27.181 35.6614 30.5747 35.3447C31.6497 35.2447 32.583 34.6989 33.3351 33.9489L36.2935 31.0072C38.2935 29.0218 37.731 25.6155 35.1726 24.2259L31.1935 22.0614C29.5143 21.1509 27.4726 21.4176 26.1601 22.7218Z" fill="#FEFEFE"/>
</svg>
