<svg width="45" height="45" viewBox="0 0 45 45" fill="none" xmlns="http://www.w3.org/2000/svg">
<path d="M0 22.5C0 34.9264 10.0736 45 22.5 45C34.9264 45 45 34.9264 45 22.5C45 10.0736 34.9264 0 22.5 0C10.0736 0 0 10.0736 0 22.5Z" fill="black"/>
<path d="M31.9311 28.1636C31.5777 29.048 31.1593 29.862 30.6745 30.6104C30.0137 31.6307 29.4727 32.3369 29.0558 32.7291C28.4094 33.3728 27.7169 33.7025 26.9754 33.7213C26.443 33.7213 25.801 33.5572 25.0536 33.2244C24.3038 32.8932 23.6148 32.7291 22.9848 32.7291C22.324 32.7291 21.6153 32.8932 20.8573 33.2244C20.0981 33.5572 19.4866 33.7306 19.019 33.7478C18.3079 33.7806 17.599 33.4416 16.8915 32.7291C16.44 32.3026 15.8751 31.5713 15.1985 30.5354C14.4725 29.4292 13.8756 28.1464 13.4081 26.684C12.9073 25.1043 12.6562 23.5747 12.6562 22.0938C12.6562 20.3975 12.9947 18.9344 13.6727 17.7083C14.2055 16.7235 14.9143 15.9467 15.8014 15.3764C16.6885 14.8061 17.6471 14.5154 18.6794 14.4969C19.2442 14.4969 19.9849 14.6861 20.9054 15.0579C21.8232 15.431 22.4126 15.6203 22.671 15.6203C22.8641 15.6203 23.5189 15.399 24.6287 14.9579C25.6783 14.5489 26.5642 14.3795 27.2899 14.4462C29.2563 14.6181 30.7337 15.4576 31.7162 16.9701C29.9575 18.1241 29.0875 19.7404 29.1048 21.814C29.1207 23.4291 29.6617 24.7731 30.725 25.8403C31.2069 26.3356 31.745 26.7184 32.3438 26.9902C32.2139 27.398 32.0768 27.7886 31.9311 28.1636ZM27.4212 8.94389C27.4212 10.2098 26.9941 11.3918 26.1429 12.4858C25.1157 13.7864 23.8732 14.5379 22.5258 14.4194C22.5087 14.2675 22.4987 14.1076 22.4987 13.9397C22.4987 12.7244 22.9872 11.4238 23.8547 10.3604C24.2878 9.82199 24.8387 9.3743 25.5067 9.01717C26.1732 8.66537 26.8037 8.47082 27.3966 8.4375C27.4139 8.60673 27.4212 8.77598 27.4212 8.94388V8.94389Z" fill="white"/>
</svg>
