<svg width="45" height="45" viewBox="0 0 45 45" fill="none" xmlns="http://www.w3.org/2000/svg">
<g clip-path="url(#clip0_1012_960)">
<path d="M44.5615 23.0182C44.5615 21.4887 44.4375 19.951 44.1729 18.4463H22.9502V27.1106H35.1034C34.5991 29.905 32.9787 32.377 30.6059 33.9478V39.5697H37.8565C42.1143 35.651 44.5615 29.8637 44.5615 23.0182Z" fill="#4285F4"/>
<path d="M22.9503 45.0015C29.0187 45.0015 34.1362 43.009 37.8649 39.5697L30.6143 33.9478C28.597 35.3202 25.9928 36.0974 22.9586 36.0974C17.0887 36.0974 12.1116 32.1373 10.3258 26.813H2.84375V32.6085C6.66334 40.2063 14.4431 45.0015 22.9503 45.0015Z" fill="#34A853"/>
<path d="M10.3175 26.8131C9.37496 24.0187 9.37496 20.9928 10.3175 18.1983V12.4028H2.84364C-0.347618 18.7605 -0.347618 26.2509 2.84364 32.6086L10.3175 26.8131Z" fill="#FBBC04"/>
<path d="M22.9503 8.90561C26.1581 8.85601 29.2584 10.0631 31.5816 12.2788L38.0054 5.85491C33.9378 2.03532 28.5391 -0.0646238 22.9503 0.00151625C14.4431 0.00151625 6.66333 4.79667 2.84375 12.4028L10.3176 18.1983C12.0951 12.8657 17.0804 8.90561 22.9503 8.90561Z" fill="#EA4335"/>
</g>
<defs>
<clipPath id="clip0_1012_960">
<rect width="45" height="45" fill="white"/>
</clipPath>
</defs>
</svg>
