<svg width="22" height="23" viewBox="0 0 22 23" fill="none" xmlns="http://www.w3.org/2000/svg">
<path d="M6 17.0346C3.825 17.0226 2.647 16.9266 1.879 16.1576C1 15.2796 1 13.8646 1 11.0366V7.03662C1 4.20862 1 2.79362 1.879 1.91562C2.757 1.03662 4.172 1.03662 7 1.03662H15C17.828 1.03662 19.243 1.03662 20.121 1.91562C20.611 2.40562 20.828 3.06162 20.924 4.03662M15.5 17.0346L16.32 17.0326C18.292 17.0116 19.392 16.8876 20.121 16.1576C21 15.2796 21 13.8646 21 11.0366V8.03662M8 5.03662H14M6 8.53662H8M16 8.53662H11.5" stroke="#34A853" stroke-width="1.5" stroke-linecap="round"/>
<path d="M9.89049 12.9815C10.2 12.7174 10.5936 12.5723 11.0005 12.5723C11.4074 12.5723 11.801 12.7174 12.1105 12.9815C12.3835 13.2155 12.7245 13.3565 13.0835 13.3855C13.4887 13.4177 13.8692 13.5932 14.1567 13.8806C14.4442 14.1679 14.62 14.5483 14.6525 14.9535C14.6805 15.3135 14.8225 15.6535 15.0555 15.9275C15.3191 16.2369 15.4639 16.63 15.4639 17.0365C15.4639 17.4429 15.3191 17.8361 15.0555 18.1455C14.8219 18.4196 14.6809 18.7605 14.6525 19.1195C14.6202 19.525 14.4444 19.9058 14.1566 20.1933C13.8689 20.4809 13.488 20.6565 13.0825 20.6885C12.7238 20.7171 12.3833 20.8581 12.1095 21.0915C11.8001 21.3551 11.4069 21.4999 11.0005 21.4999C10.594 21.4999 10.2009 21.3551 9.89149 21.0915C9.61748 20.8576 9.27661 20.7162 8.91749 20.6875C8.51245 20.6551 8.1322 20.4794 7.84487 20.1921C7.55755 19.9048 7.38193 19.5245 7.34949 19.1195C7.32078 18.7604 7.17939 18.4195 6.94549 18.1455C6.68189 17.8361 6.53711 17.4429 6.53711 17.0365C6.53711 16.63 6.68189 16.2369 6.94549 15.9275C7.17939 15.6535 7.32078 15.3126 7.34949 14.9535C7.38193 14.5485 7.55755 14.1682 7.84487 13.8809C8.1322 13.5936 8.51245 13.4179 8.91749 13.3855C9.27749 13.3565 9.61649 13.2155 9.89049 12.9815Z" stroke="#34A853" stroke-width="1.5"/>
<path d="M9.5 17.2366L10.357 18.0366L12.5 16.0366" stroke="#34A853" stroke-width="1.5" stroke-linecap="round" stroke-linejoin="round"/>
</svg>
