<svg width="22" height="23" viewBox="0 0 22 23" fill="none" xmlns="http://www.w3.org/2000/svg">
<path opacity="0.5" d="M6 16.998C3.825 16.986 2.647 16.89 1.879 16.121C1 15.243 1 13.828 1 11V7C1 4.172 1 2.757 1.879 1.879C2.757 1 4.172 1 7 1H15C17.828 1 19.243 1 20.121 1.879C21 2.757 21 4.172 21 7V11C21 13.828 21 15.243 20.121 16.121C19.391 16.851 18.292 16.975 16.32 16.996L15.5 16.998" stroke="#EB7100" stroke-width="1.5"/>
<path opacity="0.5" d="M8 5H14M6 8.5H16" stroke="#EB7100" stroke-width="1.5" stroke-linecap="round"/>
<path d="M9.89049 12.9449C10.2 12.6807 10.5936 12.5356 11.0005 12.5356C11.4074 12.5356 11.801 12.6807 12.1105 12.9449C12.3835 13.1789 12.7245 13.3199 13.0835 13.3489C13.4887 13.3811 13.8692 13.5566 14.1567 13.844C14.4442 14.1313 14.62 14.5117 14.6525 14.9169C14.6805 15.2769 14.8225 15.6169 15.0555 15.8909C15.3191 16.2003 15.4639 16.5934 15.4639 16.9999C15.4639 17.4063 15.3191 17.7995 15.0555 18.1089C14.8219 18.383 14.6809 18.7239 14.6525 19.0829C14.6202 19.4884 14.4444 19.8691 14.1566 20.1567C13.8689 20.4443 13.488 20.6199 13.0825 20.6519C12.7238 20.6805 12.3833 20.8215 12.1095 21.0549C11.8001 21.3185 11.4069 21.4633 11.0005 21.4633C10.594 21.4633 10.2009 21.3185 9.89149 21.0549C9.61748 20.821 9.27661 20.6796 8.91749 20.6509C8.51245 20.6184 8.1322 20.4428 7.84487 20.1555C7.55755 19.8682 7.38193 19.4879 7.34949 19.0829C7.32078 18.7238 7.17939 18.3829 6.94549 18.1089C6.68189 17.7995 6.53711 17.4063 6.53711 16.9999C6.53711 16.5934 6.68189 16.2003 6.94549 15.8909C7.17939 15.6169 7.32078 15.276 7.34949 14.9169C7.38193 14.5118 7.55755 14.1316 7.84487 13.8443C8.1322 13.5569 8.51245 13.3813 8.91749 13.3489C9.27749 13.3199 9.61649 13.1789 9.89049 12.9449Z" stroke="#EB7100" stroke-width="1.5"/>
<path d="M9.5 17.2L10.357 18L12.5 16" stroke="#EB7100" stroke-width="1.5" stroke-linecap="round" stroke-linejoin="round"/>
</svg>
