<svg width="22" height="22" viewBox="0 0 22 22" fill="none" xmlns="http://www.w3.org/2000/svg">
<path d="M17.542 7.90283C18.1865 7.41943 18.7666 6.83936 19.2178 6.1626C18.6377 6.42041 17.9609 6.61377 17.2842 6.67822C17.9932 6.25928 18.5088 5.61475 18.7666 4.80908C18.1221 5.1958 17.3809 5.48584 16.6396 5.64697C15.9951 4.97021 15.125 4.5835 14.1582 4.5835C12.2891 4.5835 10.7744 6.09814 10.7744 7.96729C10.7744 8.2251 10.8066 8.48291 10.8711 8.74072C8.06738 8.57959 5.55371 7.22607 3.87793 5.1958C3.58789 5.6792 3.42676 6.25928 3.42676 6.90381C3.42676 8.06396 4.00684 9.09521 4.94141 9.70752C4.39355 9.67529 3.8457 9.54639 3.39453 9.28857V9.3208C3.39453 10.9644 4.55469 12.3179 6.10156 12.6401C5.84375 12.7046 5.52148 12.769 5.23145 12.769C5.00586 12.769 4.8125 12.7368 4.58691 12.7046C5.00586 14.0581 6.2627 15.0249 7.74512 15.0571C6.58496 15.9595 5.13477 16.5073 3.55566 16.5073C3.26562 16.5073 3.00781 16.4751 2.75 16.4429C4.23242 17.4097 6.00488 17.9575 7.93848 17.9575C14.1582 17.9575 17.542 12.8335 17.542 8.354C17.542 8.19287 17.542 8.06396 17.542 7.90283Z" fill="#6B7280"/>
</svg>
