<svg width="24" height="24" viewBox="0 0 24 24" fill="none" xmlns="http://www.w3.org/2000/svg">
<path d="M4 20.25V18C4 17.8011 4.07902 17.6103 4.21967 17.4697C4.36032 17.329 4.55109 17.25 4.75 17.25C4.94891 17.25 5.13968 17.329 5.28033 17.4697C5.42098 17.6103 5.5 17.8011 5.5 18V20.25C5.5 20.388 5.612 20.5 5.75 20.5H18.25C18.3163 20.5 18.3799 20.4737 18.4268 20.4268C18.4737 20.3799 18.5 20.3163 18.5 20.25V18C18.5 17.8011 18.579 17.6103 18.7197 17.4697C18.8603 17.329 19.0511 17.25 19.25 17.25C19.4489 17.25 19.6397 17.329 19.7803 17.4697C19.921 17.6103 20 17.8011 20 18V20.25C20 20.7141 19.8156 21.1592 19.4874 21.4874C19.1592 21.8156 18.7141 22 18.25 22H5.75C5.28587 22 4.84075 21.8156 4.51256 21.4874C4.18437 21.1592 4 20.7141 4 20.25Z" fill="black"/>
<path d="M5.22 9.53024C5.15033 9.46068 5.09507 9.37806 5.05736 9.28712C5.01965 9.19618 5.00024 9.09869 5.00024 9.00024C5.00024 8.90179 5.01965 8.80431 5.05736 8.71337C5.09507 8.62242 5.15033 8.53981 5.22 8.47024L11.47 2.22024C11.5396 2.15058 11.6222 2.09531 11.7131 2.0576C11.8041 2.0199 11.9015 2.00049 12 2.00049C12.0984 2.00049 12.1959 2.0199 12.2869 2.0576C12.3778 2.09531 12.4604 2.15058 12.53 2.22024L18.78 8.47024C18.8496 8.53984 18.9048 8.62247 18.9425 8.71341C18.9801 8.80435 18.9995 8.90181 18.9995 9.00024C18.9995 9.09867 18.9801 9.19614 18.9425 9.28708C18.9048 9.37801 18.8496 9.46064 18.78 9.53024C18.7104 9.59984 18.6278 9.65505 18.5368 9.69272C18.4459 9.73039 18.3484 9.74978 18.25 9.74978C18.1516 9.74978 18.0541 9.73039 17.9632 9.69272C17.8722 9.65505 17.7896 9.59984 17.72 9.53024L12.75 4.56124V16.7502C12.75 16.9492 12.671 17.1399 12.5303 17.2806C12.3897 17.4212 12.1989 17.5002 12 17.5002C11.8011 17.5002 11.6103 17.4212 11.4697 17.2806C11.329 17.1399 11.25 16.9492 11.25 16.7502V4.56124L6.28 9.53024C6.21043 9.59991 6.12782 9.65517 6.03687 9.69288C5.94593 9.73059 5.84845 9.75 5.75 9.75C5.65155 9.75 5.55406 9.73059 5.46312 9.69288C5.37218 9.65517 5.28956 9.59991 5.22 9.53024Z" fill="black"/>
</svg>
