<svg width="17" height="14" viewBox="0 0 17 14" fill="none" xmlns="http://www.w3.org/2000/svg">
<path d="M15.5 0C15.6326 0 15.7598 0.0526785 15.8536 0.146447C15.9473 0.240215 16 0.367392 16 0.5C16 0.632608 15.9473 0.759785 15.8536 0.853553C15.7598 0.947321 15.6326 1 15.5 1H0.5C0.367392 1 0.240215 0.947321 0.146447 0.853553C0.0526785 0.759785 0 0.632608 0 0.5C0 0.367392 0.0526785 0.240215 0.146447 0.146447C0.240215 0.0526785 0.367392 0 0.5 0H15.5ZM15.5 3C15.6326 3 15.7598 3.05268 15.8536 3.14645C15.9473 3.24021 16 3.36739 16 3.5C16 3.63261 15.9473 3.75979 15.8536 3.85355C15.7598 3.94732 15.6326 4 15.5 4H0.5C0.367392 4 0.240215 3.94732 0.146447 3.85355C0.0526785 3.75979 0 3.63261 0 3.5C0 3.36739 0.0526785 3.24021 0.146447 3.14645C0.240215 3.05268 0.367392 3 0.5 3H15.5ZM8.257 6C8.00231 6.30846 7.782 6.64378 7.6 7H0.5C0.367392 7 0.240215 6.94732 0.146447 6.85355C0.0526785 6.75979 0 6.63261 0 6.5C0 6.36739 0.0526785 6.24021 0.146447 6.14645C0.240215 6.05268 0.367392 6 0.5 6H8.257ZM7 9.5C7 9.668 7.008 9.835 7.022 10H0.5C0.367392 10 0.240215 9.94732 0.146447 9.85355C0.0526785 9.75979 0 9.63261 0 9.5C0 9.36739 0.0526785 9.24021 0.146447 9.14645C0.240215 9.05268 0.367392 9 0.5 9H7.022C7.00718 9.16625 6.99984 9.33309 7 9.5ZM12.5 14C13.6935 14 14.8381 13.5259 15.682 12.682C16.5259 11.8381 17 10.6935 17 9.5C17 8.30653 16.5259 7.16193 15.682 6.31802C14.8381 5.47411 13.6935 5 12.5 5C11.3065 5 10.1619 5.47411 9.31802 6.31802C8.47411 7.16193 8 8.30653 8 9.5C8 10.6935 8.47411 11.8381 9.31802 12.682C10.1619 13.5259 11.3065 14 12.5 14ZM13.646 11.354L12.5 10.207L11.354 11.354C11.2601 11.4479 11.1328 11.5006 11 11.5006C10.8672 11.5006 10.7399 11.4479 10.646 11.354C10.5521 11.2601 10.4994 11.1328 10.4994 11C10.4994 10.8672 10.5521 10.7399 10.646 10.646L11.793 9.5L10.646 8.354C10.5521 8.26011 10.4994 8.13278 10.4994 8C10.4994 7.86722 10.5521 7.73989 10.646 7.646C10.7399 7.55211 10.8672 7.49937 11 7.49937C11.1328 7.49937 11.2601 7.55211 11.354 7.646L12.5 8.793L13.646 7.646C13.6925 7.59951 13.7477 7.56264 13.8084 7.53748C13.8692 7.51232 13.9343 7.49937 14 7.49937C14.0657 7.49937 14.1308 7.51232 14.1916 7.53748C14.2523 7.56264 14.3075 7.59951 14.354 7.646C14.4005 7.69249 14.4374 7.74768 14.4625 7.80842C14.4877 7.86916 14.5006 7.93426 14.5006 8C14.5006 8.06574 14.4877 8.13084 14.4625 8.19158C14.4374 8.25232 14.4005 8.30751 14.354 8.354L13.207 9.5L14.354 10.646C14.4005 10.6925 14.4374 10.7477 14.4625 10.8084C14.4877 10.8692 14.5006 10.9343 14.5006 11C14.5006 11.0657 14.4877 11.1308 14.4625 11.1916C14.4374 11.2523 14.4005 11.3075 14.354 11.354C14.3075 11.4005 14.2523 11.4374 14.1916 11.4625C14.1308 11.4877 14.0657 11.5006 14 11.5006C13.9343 11.5006 13.8692 11.4877 13.8084 11.4625C13.7477 11.4374 13.6925 11.4005 13.646 11.354Z" fill="#FF0000"/>
</svg>
